<svg width="94" height="115" viewBox="0 0 94 115" fill="none" xmlns="http://www.w3.org/2000/svg">
<path d="M0.278271 0.0769472C7.21665 -0.00854281 13.0898 1.36956 18.592 5.86463C22.3604 8.94228 24.8139 12.8167 26.2314 17.3973C30.5674 31.4177 21.1823 42.8426 13.8763 53.6878C11.1595 57.7196 8.56911 62.4711 6.52076 66.8944C1.93507 76.7993 0.329564 88.0156 0.379149 98.854C0.385988 100.412 0.225267 102.718 0.37231 104.187C0.774114 103.924 0.72111 101.579 0.768984 100.995C1.41016 93.2288 2.35226 85.5706 4.63143 78.0987C9.28209 62.8438 19.1801 47.1307 35.3258 42.4271C46.2498 39.2434 58.2799 42.9503 64.3651 52.8261C65.8356 55.2147 66.6289 57.4939 67.3658 60.168C67.1692 57.051 67.3094 53.0415 67.3145 49.8733L67.3026 30.9475C68.4892 30.9663 69.7185 30.9526 70.9068 30.9355C78.2949 30.8278 85.7428 31.0654 93.1257 30.903C93.3206 40.5343 93.2027 50.7248 93.2283 60.3732C93.2471 66.5268 93.466 72.8462 92.7427 78.969C90.4824 98.1239 74.3435 114.646 54.597 114.906C54.014 114.914 50.897 115.044 50.5824 114.984C50.7192 114.692 52.482 114.483 52.9163 114.422C57.3908 113.801 61.7902 110.281 64.2147 106.608C68.3695 100.205 67.176 91.6558 67.2649 84.3463C67.3333 78.6954 67.1726 73.0052 67.2649 67.3389C65.5979 67.25 63.3854 67.3099 61.6807 67.3081L51.3518 67.3047C43.0849 67.303 34.4367 67.1867 26.2023 67.3509C26.1049 68.7598 26.1835 70.9945 26.1835 72.4632L26.1373 81.6329L26.1014 114.902C17.7063 114.757 8.52294 114.827 0.109 114.919C0.0645454 113.288 0.0799333 111.65 0.0782236 110.019C0.0730941 102.441 0.0884825 94.8685 0.109 87.2889L0.0559962 60.8759L0.0542864 18.6232C0.0559961 12.8423 0.0166707 7.05979 0.00299229 1.27894C0.00128259 0.75232 -0.0431724 0.422328 0.278271 0.0769472Z" fill="#F5E6D3"/>
<path d="M48.185 83.8846C55.8877 83.3597 62.5696 89.1508 63.1424 96.85C63.7152 104.549 57.9634 111.267 50.2676 111.886C42.505 112.51 35.7188 106.699 35.1409 98.9326C34.563 91.1667 40.4174 84.4164 48.185 83.8846Z" fill="#F5E6D3"/>
<path d="M78.3788 0.094072C85.7155 -0.776218 92.3598 4.48998 93.1891 11.8302C94.0183 19.1721 88.7162 25.7873 81.3692 26.5755C74.0803 27.3586 67.5283 22.1061 66.7059 14.8223C65.8835 7.53856 71.0984 0.957523 78.3788 0.094072Z" fill="#F5E6D3"/>
</svg>
